<?xml version="1.0" standalone="no"?>
<!DOCTYPE svg PUBLIC "-//W3C//DTD SVG 20010904//EN"
 "http://www.w3.org/TR/2001/REC-SVG-20010904/DTD/svg10.dtd">
<svg version="1.0" xmlns="http://www.w3.org/2000/svg"
 width="288.000000pt" height="288.000000pt" viewBox="0 0 288.000000 288.000000"
 preserveAspectRatio="xMidYMid meet">
<metadata>
Created by potrace 1.11, written by Peter Selinger 2001-2013
</metadata>
<g transform="translate(0.000000,288.000000) scale(0.100000,-0.100000)"
fill="#000000" stroke="none">
<path d="M2269 2824 c-90 -59 -149 -146 -149 -216 l0 -33 -73 2 c-59 1 -84 -3
-123 -21 -52 -24 -130 -84 -130 -101 -1 -5 32 -22 73 -37 142 -52 264 -133
370 -247 29 -31 60 -70 69 -87 17 -32 17 -32 -17 -80 -85 -118 -248 -180 -398
-152 -25 4 -74 22 -109 38 l-64 30 21 34 c55 88 74 294 37 396 -35 95 -115
189 -199 235 l-35 19 -26 -25 c-32 -30 -32 -44 -1 -81 14 -17 32 -42 40 -57
13 -27 13 -27 -36 -44 -86 -31 -84 -86 3 -87 41 0 56 14 38 35 -13 15 -68 17
-76 3 -3 -4 -10 -8 -16 -8 -23 0 15 29 57 43 38 14 45 14 56 1 18 -22 23 -106
9 -149 -23 -70 -100 -135 -159 -135 -30 0 -86 32 -112 63 -24 28 -49 102 -49
142 0 65 32 82 115 60 27 -7 28 -6 15 7 -18 19 -79 40 -91 32 -26 -16 21 73
55 105 32 30 32 29 2 64 l-24 28 -47 -22 c-69 -32 -147 -115 -186 -195 -27
-57 -32 -82 -35 -155 -4 -92 17 -190 56 -272 11 -23 17 -44 13 -48 -5 -4 -31
-19 -60 -34 -163 -81 -359 -44 -484 92 -27 30 -49 62 -49 71 0 48 121 174 246
258 86 57 213 120 264 130 16 4 30 10 30 14 0 15 -84 70 -137 90 -39 15 -70
19 -126 16 l-74 -4 -6 49 c-11 95 -79 188 -169 233 -28 14 -53 25 -54 23 -1
-1 -5 -103 -7 -227 -4 -181 -9 -241 -26 -306 -25 -102 -50 -164 -65 -164 -6 0
-28 -16 -48 -35 -39 -39 -65 -113 -49 -143 7 -12 0 -34 -23 -82 -152 -303
-193 -664 -106 -914 62 -180 198 -348 375 -465 107 -70 297 -161 420 -201 120
-39 238 -96 320 -155 67 -48 135 -113 135 -129 0 -5 27 18 61 52 103 105 222
176 403 239 185 64 358 162 481 275 53 47 72 67 139 142 36 42 98 139 127 199
46 101 62 179 63 312 1 105 -9 228 -19 245 -2 3 -6 26 -10 50 -9 61 -76 262
-120 356 -27 59 -34 85 -29 110 10 52 -25 117 -80 149 -41 24 -48 33 -66 91
-40 132 -53 255 -59 572 -1 23 -5 42 -10 42 -5 0 -33 -16 -62 -36z m45 -139
c3 -27 8 -81 11 -120 3 -38 10 -103 15 -144 6 -41 8 -76 6 -78 -11 -11 -54
159 -61 241 -4 45 12 163 20 154 2 -2 6 -25 9 -53z m-1732 -95 c1 -47 -2 -103
-6 -125 -11 -64 -38 -155 -48 -162 -6 -3 -8 3 -5 13 6 19 12 63 23 145 5 46
12 147 14 224 2 78 21 -4 22 -95z m1501 -188 c98 -48 188 -114 174 -128 -4 -4
-12 -2 -19 3 -7 6 -42 23 -78 39 -79 35 -260 133 -260 141 0 17 94 -11 183
-55z m-1103 41 c-54 -21 -331 -164 -359 -187 -11 -8 -13 -8 -10 1 6 18 97 89
153 119 61 34 171 72 206 72 15 0 19 -2 10 -5z m1303 -83 c43 -89 47 -116 9
-62 -30 42 -72 152 -57 152 2 0 24 -40 48 -90z m-1657 -3 c-9 -23 -30 -58 -46
-77 -33 -38 -30 -29 20 74 35 73 54 75 26 3z m1836 -232 c0 -14 -29 -31 -38
-22 -9 8 16 39 28 35 5 -2 10 -8 10 -13z m-1997 -34 c10 -17 -11 -20 -34 -5
-26 18 -19 39 9 24 10 -6 21 -14 25 -19z m2039 1 c7 -11 -5 -27 -33 -41 -36
-20 -48 2 -15 28 29 23 40 26 48 13z m-1059 -14 c17 1 39 3 49 4 13 2 26 -8
39 -30 l20 -33 -28 -167 c-15 -92 -29 -180 -31 -197 -1 -16 -6 -64 -10 -105
-10 -95 -11 -441 -1 -498 8 -54 13 -62 38 -62 23 0 21 -19 24 225 1 110 5 225
9 255 12 88 54 218 98 304 52 105 56 110 77 93 58 -49 195 -74 301 -55 94 17
174 64 263 154 l58 59 24 -30 c31 -39 31 -44 -4 -51 -26 -5 -42 -17 -111 -77
-120 -106 -268 -217 -375 -282 -242 -145 -315 -230 -309 -362 4 -102 76 -189
206 -248 29 -13 46 -25 38 -26 -45 -6 -88 -5 -114 2 -16 5 -32 7 -34 4 -7 -6
43 -25 123 -46 l70 -18 -50 1 c-48 2 -135 20 -155 33 -6 3 -10 2 -10 -3 0 -6
42 -31 93 -56 107 -53 102 -59 -12 -16 -45 16 -81 28 -81 26 0 -2 52 -33 115
-70 113 -66 145 -102 62 -69 -66 27 -121 60 -171 104 -25 22 -46 37 -46 32 0
-12 59 -82 104 -123 22 -19 44 -40 50 -46 6 -5 35 -26 64 -46 66 -44 52 -59
-21 -24 -54 25 -162 124 -172 158 -4 10 -11 18 -16 18 -9 0 -4 -33 12 -77 8
-21 6 -21 -17 -12 -14 5 -35 19 -46 32 -18 20 -19 21 -14 2 17 -67 26 -118 21
-126 -10 -15 -24 -10 -40 15 -15 22 -18 34 -31 101 -3 16 -8 32 -11 35 -9 8 4
-181 17 -238 9 -40 9 -57 1 -65 -21 -21 -42 15 -42 77 -1 54 -15 128 -19 96
-1 -8 -3 -24 -6 -35 -2 -11 -4 -42 -5 -68 -2 -49 -21 -83 -41 -71 -10 6 -7 58
8 129 9 45 12 185 3 180 -4 -3 -14 -36 -24 -74 -18 -75 -40 -106 -55 -80 -10
15 -7 41 10 99 13 44 12 49 -3 30 -16 -21 -87 -74 -87 -66 0 4 7 21 16 37 31
61 11 64 -39 6 -57 -67 -116 -115 -155 -127 -58 -16 -52 6 12 48 60 39 196
174 196 193 0 5 -33 -15 -73 -45 -69 -52 -148 -95 -174 -96 -34 0 -6 33 50 61
64 32 177 99 177 105 0 4 -17 -2 -80 -29 -81 -33 -92 -26 -20 14 86 46 113 68
57 45 -36 -15 -147 -32 -147 -23 0 2 31 15 70 27 76 24 135 58 70 40 -51 -15
-130 -21 -130 -12 0 5 19 17 43 28 62 28 141 112 166 179 25 66 26 114 6 173
-32 90 -58 117 -187 193 -219 129 -314 199 -477 352 -50 46 -95 80 -112 84
-33 6 -34 10 -14 37 13 17 17 15 74 -35 117 -103 206 -147 316 -156 71 -6 168
16 233 52 42 24 45 24 58 8 38 -53 116 -242 129 -313 2 -14 10 -50 16 -80 6
-30 12 -144 14 -252 2 -108 6 -201 10 -207 13 -21 44 -12 51 15 9 37 11 414 2
499 -12 115 -34 255 -53 340 -6 28 -16 105 -19 143 -4 54 24 97 58 85 11 -4
35 -6 51 -5z m-1030 -14 c27 -18 34 -44 11 -44 -22 0 -60 35 -52 48 9 15 12
15 41 -4z m2102 -41 c-8 -9 -21 -13 -27 -11 -9 3 -8 9 4 21 10 9 22 14 28 11
6 -4 4 -12 -5 -21z m-2129 -21 c3 -9 -2 -13 -14 -10 -9 1 -19 9 -22 16 -3 9 2
13 14 10 9 -1 19 -9 22 -16z m179 -125 c36 -52 172 -186 243 -238 36 -27 70
-52 75 -57 6 -5 57 -36 115 -70 131 -76 182 -119 209 -177 77 -164 -53 -331
-250 -319 -295 18 -535 328 -528 682 2 91 21 191 39 202 5 3 23 6 42 7 27 2
37 -3 55 -30z m1866 -14 c28 -68 7 -308 -40 -458 -66 -212 -273 -365 -496
-367 -68 0 -103 10 -159 49 -71 48 -101 166 -63 246 32 68 156 170 338 278 32
18 66 41 75 49 9 8 31 26 47 38 17 13 71 64 121 113 80 78 96 89 127 89 31 0
37 -4 50 -37z"/>
<path d="M1696 1733 c13 -20 24 -41 25 -47 0 -6 2 -25 4 -43 4 -41 -29 -93
-74 -114 -22 -10 -30 -19 -22 -23 20 -13 71 5 106 36 73 64 48 182 -46 220
-14 5 -13 -1 7 -29z"/>
<path d="M1156 1730 c-92 -81 -44 -223 79 -234 45 -5 45 6 1 22 -51 19 -80 70
-72 128 3 25 14 61 25 80 25 42 13 44 -33 4z"/>
<path d="M1312 2348 c-26 -26 35 -50 82 -32 26 10 18 22 -21 33 -47 13 -47 13
-61 -1z"/>
<path d="M1455 2310 c3 -5 8 -10 11 -10 2 0 4 5 4 10 0 6 -5 10 -11 10 -5 0
-7 -4 -4 -10z"/>
<path d="M1461 2254 c0 -11 3 -14 6 -6 3 7 2 16 -1 19 -3 4 -6 -2 -5 -13z"/>
<path d="M1410 2190 c0 -5 16 -10 36 -10 21 0 33 4 29 10 -3 6 -19 10 -36 10
-16 0 -29 -4 -29 -10z"/>
</g>
</svg>
